<svg width="200" height="200" viewBox="0 0 200 200" fill="none" xmlns="http://www.w3.org/2000/svg">
<circle cx="100" cy="100" r="100" fill="url(#paint0_linear_1016_11)"/>
<circle cx="99.5" cy="100.5" r="87.5" fill="black"/>
<path d="M81.3674 131.725C81.5007 131.858 81.7257 131.958 82.0424 132.025C82.3757 132.108 82.6924 132.15 82.9924 132.15C83.5424 132.15 84.0674 131.967 84.5674 131.6C85.0674 131.25 85.5424 130.767 85.9924 130.15C86.4591 129.533 86.9007 128.825 87.3174 128.025C87.734 127.225 88.134 126.383 88.5174 125.5H88.4924C88.159 126.233 87.8007 126.983 87.4174 127.75C87.034 128.533 86.6174 129.242 86.1674 129.875C85.7174 130.525 85.2257 131.05 84.6924 131.45C84.1757 131.867 83.6174 132.075 83.0174 132.075C82.534 132.075 82.059 131.933 81.5924 131.65C81.8424 131.567 82.0757 131.525 82.2924 131.525C82.359 131.525 82.4757 131.542 82.6424 131.575C82.909 131.575 83.134 131.567 83.3174 131.55C83.5007 131.533 83.6757 131.492 83.8424 131.425C84.009 131.375 84.1674 131.283 84.3174 131.15C84.4674 131.033 84.634 130.875 84.8174 130.675L85.1174 130.75C85.6007 130.117 86.0507 129.433 86.4674 128.7C86.9007 127.967 87.3257 127.225 87.7424 126.475L88.1924 125.475L87.9674 125.425L87.5924 126.325C87.209 127.075 86.809 127.808 86.3924 128.525C85.9757 129.258 85.5007 129.925 84.9674 130.525C85.5507 129.808 86.084 129.008 86.5674 128.125C87.0507 127.242 87.4924 126.325 87.8924 125.375L87.7424 125.125C87.6591 124.742 87.534 124.367 87.3674 124C87.2507 123.717 87.1174 123.425 86.9674 123.125C87.2674 123.842 87.4757 124.533 87.5924 125.2C87.4257 125.15 87.284 125.05 87.1674 124.9C87.0674 124.733 86.9674 124.542 86.8674 124.325C86.784 124.108 86.7007 123.883 86.6174 123.65C86.5507 123.417 86.459 123.183 86.3424 122.95L86.4674 122.725C86.2007 122.308 85.909 121.792 85.5924 121.175C85.2924 120.558 84.9674 119.925 84.6174 119.275C84.284 118.625 83.9424 117.992 83.5924 117.375C83.2424 116.758 82.9007 116.242 82.5674 115.825L82.4924 115.9L85.6174 121.525C84.984 120.458 84.309 119.375 83.5924 118.275C82.8757 117.175 82.234 115.958 81.6674 114.625C81.6674 114.508 81.6507 114.358 81.6174 114.175C81.584 113.975 81.5424 113.775 81.4924 113.575C81.459 113.358 81.4174 113.15 81.3674 112.95C81.3174 112.733 81.2674 112.542 81.2174 112.375L81.8674 112.175C81.9507 112.175 82.0257 112.217 82.0924 112.3C82.159 112.367 82.2174 112.517 82.2674 112.75C82.3507 112.75 82.4257 112.683 82.4924 112.55C82.559 112.417 82.6257 112.267 82.6924 112.1C82.7757 111.933 82.859 111.783 82.9424 111.65C83.0424 111.517 83.1674 111.45 83.3174 111.45C83.534 111.45 83.7257 111.6 83.8924 111.9C84.0757 112.183 84.2424 112.533 84.3924 112.95C84.559 113.367 84.734 113.808 84.9174 114.275C85.1007 114.725 85.3174 115.117 85.5674 115.45C85.834 115.9 86.1007 116.342 86.3674 116.775C86.6507 117.208 86.909 117.667 87.1424 118.15C87.3924 118.817 87.7174 119.492 88.1174 120.175C88.5174 120.842 88.8341 121.542 89.0674 122.275C89.4674 120.942 89.784 119.758 90.0174 118.725C90.2674 117.675 90.4591 116.633 90.5924 115.6C90.7757 115.067 90.934 114.467 91.0674 113.8C91.2007 113.133 91.2674 112.483 91.2674 111.85L91.8174 111.875C91.9007 111.875 91.9757 111.917 92.0424 112C92.109 112.067 92.1424 112.242 92.1424 112.525C92.1424 112.608 92.1341 112.7 92.1174 112.8C92.1174 112.883 92.1091 112.992 92.0924 113.125H92.3174C92.4674 112.575 92.6424 112.133 92.8424 111.8C93.0424 111.467 93.2341 111.3 93.4174 111.3C93.5507 111.3 93.6757 111.442 93.7924 111.725C93.9257 112.008 93.9924 112.483 93.9924 113.15C93.9924 114.267 93.8591 115.475 93.5924 116.775C93.3257 118.075 93.0507 119.358 92.7674 120.625C92.3007 122.325 91.7507 123.958 91.1174 125.525C90.484 127.092 89.6841 128.683 88.7174 130.3C88.4174 130.75 88.0757 131.217 87.6924 131.7C87.3257 132.2 86.8924 132.65 86.3924 133.05C85.909 133.45 85.3507 133.775 84.7174 134.025C84.1007 134.292 83.3924 134.425 82.5924 134.425C82.009 134.425 81.609 134.35 81.3924 134.2C81.1924 134.05 81.0924 133.933 81.0924 133.85C81.0924 133.8 81.109 133.742 81.1424 133.675C81.6424 133.842 82.1757 133.925 82.7424 133.925C83.1424 133.925 83.6007 133.85 84.1174 133.7C84.6507 133.567 85.1257 133.358 85.5424 133.075C85.159 133.275 84.7257 133.45 84.2424 133.6C83.7757 133.75 83.3507 133.825 82.9674 133.825C82.3674 133.825 81.784 133.75 81.2174 133.6C81.2174 133.483 81.1674 133.375 81.0674 133.275C80.984 133.175 80.884 133.075 80.7674 132.975C80.6507 132.892 80.5424 132.8 80.4424 132.7C80.359 132.6 80.3174 132.483 80.3174 132.35C80.3174 132.217 80.359 132.117 80.4424 132.05C80.5257 131.983 80.6174 131.933 80.7174 131.9C80.834 131.867 80.9507 131.833 81.0674 131.8C81.184 131.783 81.284 131.758 81.3674 131.725ZM89.7674 127.3C89.284 128.167 88.784 129.033 88.2674 129.9C87.7507 130.783 87.1007 131.617 86.3174 132.4C87.1174 131.65 87.7757 130.833 88.2924 129.95C88.8257 129.083 89.3174 128.2 89.7674 127.3ZM87.8924 121.025L88.7174 123.075L88.8674 122.925L87.8924 121.025ZM89.2174 122.725C89.284 122.525 89.3424 122.325 89.3924 122.125L89.5424 121.525L89.3924 121.45L89.1174 122.425C89.1507 122.558 89.184 122.658 89.2174 122.725ZM86.3924 121.825C86.209 121.392 85.9924 120.967 85.7424 120.55C85.509 120.117 85.2507 119.692 84.9674 119.275C85.2174 119.758 85.4757 120.242 85.7424 120.725C86.009 121.175 86.259 121.633 86.4924 122.1L86.3924 121.825ZM86.9924 118.975C87.009 119.225 87.0424 119.433 87.0924 119.6C87.159 119.767 87.2257 119.917 87.2924 120.05C87.3757 120.167 87.4507 120.283 87.5174 120.4C87.6007 120.5 87.6757 120.625 87.7424 120.775L87.6924 120.7L86.9924 118.975ZM88.9174 123.025L88.7424 123.225C88.7757 123.275 88.809 123.325 88.8424 123.375C88.8757 123.408 88.9007 123.458 88.9174 123.525L89.0424 123.325L88.9174 123.025ZM98.5594 120.975C98.826 121.058 99.1427 121.208 99.5094 121.425C99.8927 121.642 100.318 121.867 100.784 122.1C101.251 122.333 101.759 122.542 102.309 122.725C102.876 122.908 103.476 123 104.109 123H104.384C104.484 123 104.601 122.983 104.734 122.95L105.009 123.15C105.659 122.95 106.193 122.575 106.609 122.025C107.026 121.458 107.234 120.7 107.234 119.75C107.234 119.067 107.068 118.6 106.734 118.35C106.418 118.083 105.826 117.95 104.959 117.95C104.426 117.95 103.868 117.992 103.284 118.075C102.718 118.142 102.118 118.175 101.484 118.175C101.201 118.175 100.909 118.167 100.609 118.15C100.309 118.117 100.001 118.058 99.6844 117.975V118.125C100.351 118.292 101.009 118.375 101.659 118.375C102.293 118.375 102.893 118.342 103.459 118.275C104.043 118.192 104.601 118.15 105.134 118.15C105.584 118.15 105.934 118.2 106.184 118.3C106.451 118.383 106.651 118.5 106.784 118.65C106.918 118.8 107.001 118.983 107.034 119.2C107.084 119.4 107.109 119.625 107.109 119.875C107.109 120.658 106.901 121.325 106.484 121.875C106.084 122.392 105.609 122.717 105.059 122.85C105.676 122.633 106.159 122.258 106.509 121.725C106.876 121.158 107.059 120.525 107.059 119.825C107.059 119.325 106.926 118.942 106.659 118.675C106.409 118.408 105.968 118.275 105.334 118.275C104.818 118.275 104.234 118.308 103.584 118.375C102.934 118.442 102.243 118.475 101.509 118.475C101.059 118.475 100.534 118.417 99.9344 118.3C99.351 118.183 98.7927 117.967 98.2594 117.65C97.726 117.333 97.276 116.9 96.9094 116.35C96.5427 115.783 96.3594 115.05 96.3594 114.15C96.3594 113.433 96.501 112.775 96.7844 112.175C97.0844 111.558 97.476 111.025 97.9594 110.575C98.4427 110.108 98.9927 109.742 99.6094 109.475C100.243 109.208 100.893 109.067 101.559 109.05C102.193 109.05 102.793 109.142 103.359 109.325C103.943 109.492 104.493 109.717 105.009 110C105.526 110.267 106.018 110.567 106.484 110.9C106.951 111.233 107.384 111.567 107.784 111.9L107.284 112.4C107.168 112.4 106.993 112.333 106.759 112.2C106.526 112.05 106.168 111.8 105.684 111.45L105.534 111.675C106.134 112.158 106.568 112.608 106.834 113.025C107.118 113.442 107.259 113.767 107.259 114C107.226 114.133 107.143 114.2 107.009 114.2C106.876 114.2 106.609 114.092 106.209 113.875C105.809 113.658 105.351 113.417 104.834 113.15C104.334 112.883 103.801 112.642 103.234 112.425C102.668 112.208 102.151 112.1 101.684 112.1C101.418 112.1 101.151 112.15 100.884 112.25C100.618 112.35 100.376 112.492 100.159 112.675C99.9427 112.842 99.7594 113.05 99.6094 113.3C99.476 113.55 99.4094 113.825 99.4094 114.125C99.4094 114.608 99.6344 114.933 100.084 115.1C100.534 115.267 101.126 115.35 101.859 115.35C102.009 115.35 102.168 115.35 102.334 115.35C102.518 115.333 102.684 115.308 102.834 115.275C103.218 115.275 103.468 115.267 103.584 115.25C103.718 115.217 103.843 115.2 103.959 115.2C104.676 115.2 105.393 115.25 106.109 115.35C106.826 115.45 107.468 115.667 108.034 116C108.601 116.333 109.059 116.808 109.409 117.425C109.759 118.042 109.934 118.867 109.934 119.9C109.934 120.617 109.809 121.333 109.559 122.05C109.326 122.75 108.968 123.383 108.484 123.95C108.001 124.5 107.401 124.942 106.684 125.275C105.968 125.625 105.126 125.8 104.159 125.8C103.576 125.8 102.884 125.683 102.084 125.45C101.301 125.233 100.551 124.975 99.8344 124.675C99.1344 124.358 98.5344 124.033 98.0344 123.7C97.551 123.367 97.3094 123.083 97.3094 122.85C97.3094 122.783 97.351 122.733 97.4344 122.7C98.451 123.45 99.4844 124.067 100.534 124.55C101.568 125 102.626 125.25 103.709 125.3C103.176 125.267 102.643 125.175 102.109 125.025C101.559 124.858 101.009 124.658 100.459 124.425C99.926 124.175 99.4094 123.9 98.9094 123.6C98.426 123.283 97.9594 122.967 97.5094 122.65L97.8844 122.325C97.8344 122.308 97.7427 122.25 97.6094 122.15C97.476 122.05 97.3427 121.925 97.2094 121.775C97.0927 121.625 96.9844 121.467 96.8844 121.3C96.7844 121.133 96.7344 120.975 96.7344 120.825C96.7344 120.658 96.7677 120.55 96.8344 120.5C96.901 120.45 96.976 120.425 97.0594 120.425C97.1427 120.425 97.3177 120.483 97.5844 120.6C97.851 120.717 98.176 120.842 98.5594 120.975ZM104.084 123.525C103.501 123.525 102.851 123.408 102.134 123.175C101.434 122.925 100.768 122.608 100.134 122.225C100.651 122.575 101.226 122.892 101.859 123.175C102.493 123.442 103.226 123.575 104.059 123.575C105.176 123.575 106.059 123.233 106.709 122.55C107.376 121.867 107.709 120.95 107.709 119.8V119.55C107.626 119.017 107.443 118.583 107.159 118.25C106.893 117.9 106.476 117.708 105.909 117.675C106.259 117.742 106.543 117.85 106.759 118C106.993 118.15 107.168 118.333 107.284 118.55C107.418 118.75 107.509 118.975 107.559 119.225C107.609 119.475 107.634 119.733 107.634 120C107.568 121.1 107.218 121.967 106.584 122.6C105.951 123.217 105.118 123.525 104.084 123.525ZM107.259 124.5C107.676 124.233 108.009 123.908 108.259 123.525C108.509 123.142 108.726 122.742 108.909 122.325C108.559 123.025 108.076 123.642 107.459 124.175C106.859 124.708 106.143 125.042 105.309 125.175C105.626 125.125 105.951 125.058 106.284 124.975C106.634 124.875 106.959 124.717 107.259 124.5ZM109.634 119.8C109.634 119.617 109.601 119.442 109.534 119.275C109.484 119.142 109.443 119 109.409 118.85L109.434 119.175C109.451 119.308 109.459 119.492 109.459 119.725C109.459 120.175 109.409 120.608 109.309 121.025C109.209 121.442 109.084 121.85 108.934 122.25C109.084 121.883 109.226 121.5 109.359 121.1C109.509 120.683 109.601 120.25 109.634 119.8ZM109.409 118.775C109.409 118.792 109.409 118.817 109.409 118.85C109.409 118.817 109.409 118.792 109.409 118.775ZM105.034 122.875C105.018 122.875 105.001 122.875 104.984 122.875C105.001 122.875 105.018 122.875 105.034 122.875ZM121.849 112.5C121.699 112.5 121.49 112.525 121.224 112.575C120.974 112.625 120.715 112.683 120.449 112.75C120.199 112.817 119.965 112.883 119.749 112.95C119.549 113.017 119.424 113.067 119.374 113.1C119.807 113.033 120.207 112.958 120.574 112.875C120.94 112.775 121.34 112.725 121.774 112.725C121.69 112.875 121.582 112.992 121.449 113.075C121.315 113.158 121.165 113.225 120.999 113.275C120.849 113.308 120.682 113.342 120.499 113.375C120.315 113.392 120.124 113.425 119.924 113.475L119.749 113.25C119.432 113.367 119.19 113.442 119.024 113.475C118.857 113.492 118.682 113.5 118.499 113.5C118.299 113.5 118.09 113.5 117.874 113.5C117.674 113.483 117.449 113.475 117.199 113.475C117.199 113.558 117.19 113.625 117.174 113.675C117.557 113.675 117.882 113.675 118.149 113.675C118.415 113.658 118.74 113.625 119.124 113.575C118.757 113.642 118.432 113.692 118.149 113.725C117.882 113.758 117.557 113.775 117.174 113.775C117.107 114.158 117.049 114.533 116.999 114.9C116.949 115.267 116.924 115.625 116.924 115.975C116.924 116.175 116.932 116.408 116.949 116.675C116.965 116.942 116.982 117.217 116.999 117.5C117.032 117.767 117.057 118.025 117.074 118.275C117.09 118.508 117.099 118.683 117.099 118.8V120.3C117.182 120.633 117.424 120.883 117.824 121.05C118.224 121.217 118.799 121.3 119.549 121.3H120.349C120.632 121.3 120.824 121.333 120.924 121.4C121.04 121.45 121.099 121.525 121.099 121.625C121.099 121.708 121.032 121.758 120.899 121.775C120.765 121.775 120.632 121.775 120.499 121.775C120.015 121.775 119.507 121.742 118.974 121.675C118.474 121.608 117.982 121.533 117.499 121.45C117.982 121.567 118.49 121.675 119.024 121.775C119.574 121.858 120.107 121.9 120.624 121.9H120.849C120.915 121.9 120.99 121.892 121.074 121.875C121.074 121.958 121.074 122.033 121.074 122.1C121.09 122.167 121.115 122.242 121.149 122.325L121.349 122.275C121.399 122.258 121.457 122.25 121.524 122.25C121.59 122.233 121.64 122.208 121.674 122.175C122.207 122.225 122.474 122.408 122.474 122.725C122.474 122.908 122.424 123.058 122.324 123.175C122.224 123.292 122.099 123.383 121.949 123.45C121.799 123.517 121.632 123.567 121.449 123.6C121.265 123.617 121.09 123.625 120.924 123.625C120.34 123.625 119.765 123.592 119.199 123.525C118.649 123.442 118.107 123.358 117.574 123.275C118.04 123.442 118.632 123.575 119.349 123.675C120.065 123.775 120.79 123.825 121.524 123.825C121.34 123.942 121.124 124.033 120.874 124.1C120.624 124.167 120.365 124.2 120.099 124.2L118.299 123.975C118.065 123.942 117.882 123.908 117.749 123.875C117.632 123.842 117.515 123.808 117.399 123.775C117.282 123.725 117.149 123.675 116.999 123.625C116.865 123.575 116.674 123.517 116.424 123.45V123.175C115.99 123.058 115.64 122.858 115.374 122.575C115.107 122.292 114.899 121.983 114.749 121.65C114.599 121.317 114.499 120.983 114.449 120.65C114.399 120.3 114.374 119.992 114.374 119.725C114.374 119.442 114.374 119.183 114.374 118.95C114.39 118.7 114.399 118.45 114.399 118.2C114.399 118.017 114.39 117.783 114.374 117.5C114.374 117.217 114.365 116.917 114.349 116.6C114.332 116.283 114.315 115.958 114.299 115.625C114.299 115.292 114.299 114.975 114.299 114.675C114.299 114.492 114.299 114.317 114.299 114.15C114.315 113.983 114.332 113.833 114.349 113.7H114.099C114.082 113.817 114.074 113.95 114.074 114.1V114.55C114.074 115.033 114.082 115.517 114.099 116C114.115 116.467 114.124 116.9 114.124 117.3C114.14 117.7 114.157 118.05 114.174 118.35C114.19 118.633 114.199 118.842 114.199 118.975V119.975V120.175C114.149 119.725 114.099 119.083 114.049 118.25C113.999 117.283 113.974 116.217 113.974 115.05V114.6C113.974 114.417 113.974 114.242 113.974 114.075C113.99 113.908 114.015 113.783 114.049 113.7L113.199 113.65C113.015 113.533 112.832 113.442 112.649 113.375C112.465 113.308 112.299 113.275 112.149 113.275V112.775C112.149 112.675 112.157 112.592 112.174 112.525C112.207 112.442 112.29 112.4 112.424 112.4C112.457 112.4 112.54 112.417 112.674 112.45V112.15C112.49 112.05 112.34 111.917 112.224 111.75C112.107 111.567 112.049 111.383 112.049 111.2C112.049 110.767 112.357 110.55 112.974 110.55C113.207 110.55 113.449 110.567 113.699 110.6C113.949 110.633 114.207 110.658 114.474 110.675C114.54 110.308 114.599 109.983 114.649 109.7C114.699 109.4 114.749 109.117 114.799 108.85C114.849 108.567 114.907 108.292 114.974 108.025C115.04 107.742 115.124 107.45 115.224 107.15C115.374 106.817 115.49 106.458 115.574 106.075C115.657 105.675 115.715 105.283 115.749 104.9L116.274 104.925C116.357 104.925 116.424 104.95 116.474 105C116.54 105.05 116.574 105.167 116.574 105.35C116.574 105.5 116.549 105.7 116.499 105.95L116.799 106.025C116.932 105.575 117.09 105.208 117.274 104.925C117.474 104.642 117.665 104.5 117.849 104.5C118.132 104.5 118.307 104.858 118.374 105.575V106.025C118.374 106.458 118.34 106.867 118.274 107.25C118.224 107.617 118.157 107.983 118.074 108.35C117.99 108.717 117.907 109.092 117.824 109.475C117.74 109.858 117.665 110.275 117.599 110.725C117.965 110.775 118.324 110.8 118.674 110.8C118.84 110.8 119.007 110.8 119.174 110.8C119.34 110.783 119.507 110.775 119.674 110.775C119.84 110.775 120.015 110.708 120.199 110.575C120.382 110.442 120.549 110.375 120.699 110.375C120.832 110.375 120.932 110.417 120.999 110.5C121.065 110.583 121.099 110.675 121.099 110.775C120.799 110.858 120.499 110.95 120.199 111.05C119.915 111.133 119.64 111.217 119.374 111.3C119.64 111.267 119.924 111.208 120.224 111.125C120.524 111.025 120.84 110.933 121.174 110.85C121.174 110.933 121.174 111.008 121.174 111.075C121.19 111.142 121.215 111.217 121.249 111.3C121.282 111.3 121.324 111.292 121.374 111.275C121.474 111.242 121.532 111.225 121.549 111.225C121.715 111.308 121.824 111.417 121.874 111.55C121.924 111.667 121.949 111.8 121.949 111.95C121.949 112.067 121.932 112.175 121.899 112.275C121.865 112.358 121.849 112.433 121.849 112.5ZM115.224 121.725C114.99 121.275 114.865 120.833 114.849 120.4C114.832 119.967 114.807 119.558 114.774 119.175L114.549 115.375L114.474 115.825C114.474 116.942 114.507 117.958 114.574 118.875C114.657 119.775 114.774 120.475 114.924 120.975C114.924 121.125 114.915 121.225 114.899 121.275C114.899 121.325 114.899 121.367 114.899 121.4C114.899 121.433 114.915 121.475 114.949 121.525C114.999 121.575 115.09 121.642 115.224 121.725ZM116.649 120.375C116.615 120.242 116.599 120.1 116.599 119.95V118.725C116.582 118.892 116.565 119.058 116.549 119.225C116.532 119.375 116.524 119.533 116.524 119.7C116.524 120.133 116.549 120.467 116.599 120.7C116.649 120.9 116.749 121.067 116.899 121.2C116.815 121.1 116.757 120.992 116.724 120.875C116.707 120.742 116.682 120.575 116.649 120.375ZM114.224 120.35L114.199 120.175L114.224 120.35ZM116.949 121.225C116.932 121.208 116.915 121.2 116.899 121.2C116.915 121.2 116.932 121.208 116.949 121.225ZM133.441 125.45C132.807 125.667 132.324 125.783 131.991 125.8C131.657 125.833 131.366 125.858 131.116 125.875C130.182 125.875 129.341 125.7 128.591 125.35C127.841 125 127.199 124.525 126.666 123.925C126.132 123.325 125.716 122.625 125.416 121.825C125.132 121.008 124.991 120.142 124.991 119.225C124.991 118.692 125.041 118.142 125.141 117.575C125.241 116.992 125.391 116.425 125.591 115.875C125.791 115.308 126.049 114.783 126.366 114.3C126.666 113.817 127.024 113.383 127.441 113C127.007 113.35 126.641 113.767 126.341 114.25C126.024 114.733 125.757 115.258 125.541 115.825C125.324 116.375 125.166 116.95 125.066 117.55C124.966 118.133 124.916 118.7 124.916 119.25C124.916 119.95 125.024 120.7 125.241 121.5C125.474 122.283 125.841 123.017 126.341 123.7C126.841 124.367 127.482 124.925 128.266 125.375C129.066 125.825 130.032 126.05 131.166 126.05C131.699 126.05 132.257 125.975 132.841 125.825C132.207 126.242 131.499 126.45 130.716 126.45C130.082 126.45 129.482 126.35 128.916 126.15C128.366 125.967 127.849 125.7 127.366 125.35C126.899 125.017 126.474 124.617 126.091 124.15C125.707 123.683 125.382 123.183 125.116 122.65L125.341 122.45C125.057 121.883 124.849 121.317 124.716 120.75C124.599 120.183 124.541 119.608 124.541 119.025C124.541 118.175 124.657 117.358 124.891 116.575C125.141 115.792 125.466 115.05 125.866 114.35L126.466 113.525C126.566 113.342 126.707 113.158 126.891 112.975C127.091 112.792 127.307 112.617 127.541 112.45C127.774 112.267 128.016 112.108 128.266 111.975C128.532 111.825 128.782 111.692 129.016 111.575C129.616 111.275 130.216 111.008 130.816 110.775C131.416 110.525 132.116 110.342 132.916 110.225L132.816 110.15C131.282 110.3 129.982 110.675 128.916 111.275C127.849 111.858 126.982 112.575 126.316 113.425C125.649 114.275 125.166 115.208 124.866 116.225C124.566 117.225 124.416 118.208 124.416 119.175C124.416 119.692 124.457 120.217 124.541 120.75C124.641 121.267 124.782 121.783 124.966 122.3C124.549 121.3 124.341 120.242 124.341 119.125C124.341 118.025 124.524 116.933 124.891 115.85C125.257 114.767 125.832 113.767 126.616 112.85C127.616 111.933 128.707 111.233 129.891 110.75C131.074 110.25 132.216 110 133.316 110C133.666 110 134.024 110.058 134.391 110.175C134.757 110.292 135.091 110.475 135.391 110.725C135.691 110.958 135.932 111.267 136.116 111.65C136.316 112.033 136.416 112.5 136.416 113.05C136.416 113.5 136.307 114.05 136.091 114.7C135.874 115.35 135.549 115.983 135.116 116.6C134.699 117.2 134.174 117.717 133.541 118.15C132.907 118.567 132.174 118.775 131.341 118.775H130.516C129.899 118.642 129.332 118.492 128.816 118.325C128.316 118.142 127.841 118 127.391 117.9C127.324 118.167 127.282 118.425 127.266 118.675C127.266 118.908 127.266 119.142 127.266 119.375C127.266 119.858 127.316 120.333 127.416 120.8C127.532 121.25 127.707 121.667 127.941 122.05C128.174 122.433 128.466 122.758 128.816 123.025C129.182 123.275 129.624 123.433 130.141 123.5C130.457 123.567 130.732 123.608 130.966 123.625C131.199 123.625 131.391 123.633 131.541 123.65C131.707 123.65 131.824 123.675 131.891 123.725C131.974 123.758 132.016 123.833 132.016 123.95C131.849 124 131.674 124.033 131.491 124.05C131.324 124.067 131.149 124.075 130.966 124.075C130.382 124.075 129.857 123.983 129.391 123.8C128.924 123.6 128.524 123.375 128.191 123.125C128.574 123.508 129.032 123.783 129.566 123.95C130.099 124.1 130.624 124.175 131.141 124.175C131.424 124.175 131.716 124.15 132.016 124.1C131.982 124.2 131.966 124.258 131.966 124.275C131.966 124.375 132.007 124.442 132.091 124.475C132.157 124.458 132.274 124.417 132.441 124.35C132.607 124.267 132.774 124.192 132.941 124.125C133.124 124.042 133.299 123.975 133.466 123.925C133.632 123.858 133.749 123.825 133.816 123.825C133.899 123.825 133.974 123.842 134.041 123.875C134.107 123.892 134.141 123.983 134.141 124.15C134.141 124.317 134.082 124.517 133.966 124.75C133.849 124.983 133.674 125.217 133.441 125.45ZM129.991 115.55L130.541 115.65C130.724 115.683 130.891 115.7 131.041 115.7C131.207 115.7 131.399 115.65 131.616 115.55C131.849 115.433 132.074 115.275 132.291 115.075C132.524 114.875 132.724 114.625 132.891 114.325C133.074 114.025 133.207 113.683 133.291 113.3L133.341 113.15C133.107 113.15 132.757 113.208 132.291 113.325C131.824 113.442 131.341 113.6 130.841 113.8C130.341 113.983 129.874 114.208 129.441 114.475C129.007 114.725 128.707 115 128.541 115.3C128.791 115.35 129.032 115.4 129.266 115.45C129.516 115.483 129.757 115.517 129.991 115.55ZM128.841 117.4C128.874 117.367 128.891 117.317 128.891 117.25C128.907 117.183 128.916 117.133 128.916 117.1L127.741 116.675L127.616 117.025L128.841 117.4ZM128.141 123.075C128.024 122.942 127.907 122.808 127.791 122.675C127.691 122.558 127.607 122.442 127.541 122.325C127.691 122.608 127.891 122.858 128.141 123.075ZM149.597 123.8C149.597 123.25 149.555 122.692 149.472 122.125C149.405 121.558 149.372 121.008 149.372 120.475V119.8C149.289 119.15 149.189 118.392 149.072 117.525C148.955 116.642 148.805 115.808 148.622 115.025C148.439 114.242 148.214 113.575 147.947 113.025C147.68 112.475 147.347 112.2 146.947 112.2C146.364 112.2 145.764 112.475 145.147 113.025C144.53 113.558 144.014 114.342 143.597 115.375C143.397 115.958 143.255 116.575 143.172 117.225C143.105 117.875 143.047 118.558 142.997 119.275C142.947 119.992 142.897 120.733 142.847 121.5C142.814 122.25 142.739 123.033 142.622 123.85C142.589 123.933 142.555 124.033 142.522 124.15C142.505 124.267 142.489 124.367 142.472 124.45H139.397V122.425C139.38 122.258 139.364 122.058 139.347 121.825C139.33 121.592 139.305 121.358 139.272 121.125C139.255 120.875 139.239 120.633 139.222 120.4C139.205 120.167 139.189 119.967 139.172 119.8C139.172 118.45 139.114 117.1 138.997 115.75C138.897 114.4 138.83 113.025 138.797 111.625L139.372 111.5C139.422 111.5 139.472 111.55 139.522 111.65C139.589 111.733 139.639 111.9 139.672 112.15C139.722 112.4 139.764 112.758 139.797 113.225C139.847 113.675 139.889 114.267 139.922 115C139.939 115 139.964 114.992 139.997 114.975C140.064 114.942 140.114 114.925 140.147 114.925C140.147 114.808 140.139 114.692 140.122 114.575C140.122 114.458 140.122 114.342 140.122 114.225C140.122 112.792 140.214 111.692 140.397 110.925C140.597 110.142 140.764 109.75 140.897 109.75C140.997 109.75 141.097 109.967 141.197 110.4C141.297 110.833 141.405 111.517 141.522 112.45C141.805 112 142.13 111.567 142.497 111.15C142.864 110.733 143.272 110.375 143.722 110.075C144.189 109.758 144.689 109.508 145.222 109.325C145.755 109.142 146.339 109.05 146.972 109.05C147.522 109.05 148.005 109.167 148.422 109.4C148.839 109.633 149.205 109.942 149.522 110.325C149.855 110.692 150.13 111.117 150.347 111.6C150.58 112.067 150.78 112.542 150.947 113.025C151.114 113.492 151.247 113.95 151.347 114.4C151.464 114.833 151.564 115.2 151.647 115.5C151.647 115.533 151.655 115.575 151.672 115.625C151.689 115.658 151.705 115.692 151.722 115.725C151.922 115.192 152.172 114.583 152.472 113.9C152.772 113.2 153.147 112.542 153.597 111.925C154.047 111.308 154.572 110.792 155.172 110.375C155.789 109.942 156.497 109.725 157.297 109.725C158.08 109.725 158.747 109.933 159.297 110.35C159.847 110.767 160.305 111.3 160.672 111.95C161.055 112.6 161.355 113.325 161.572 114.125C161.805 114.908 161.98 115.683 162.097 116.45C162.214 117.2 162.289 117.892 162.322 118.525C162.355 119.158 162.372 119.642 162.372 119.975C162.372 120.508 162.347 120.9 162.297 121.15C162.264 121.4 162.155 121.525 161.972 121.525C161.939 120.858 161.905 120.183 161.872 119.5C161.855 118.817 161.805 118.133 161.722 117.45C161.655 116.75 161.555 116.067 161.422 115.4C161.289 114.75 161.114 114.108 160.897 113.475C161.314 114.792 161.555 116.108 161.622 117.425C161.705 118.758 161.772 120.075 161.822 121.375C161.705 121.258 161.614 121.2 161.547 121.2C161.497 121.2 161.464 121.233 161.447 121.3V122.05C161.447 122.267 161.447 122.492 161.447 122.725C161.464 122.958 161.489 123.158 161.522 123.325C161.489 124.008 161.455 124.5 161.422 124.8C161.405 125.083 161.347 125.267 161.247 125.35C161.114 125.35 160.997 125.275 160.897 125.125C160.797 124.975 160.697 124.783 160.597 124.55C160.514 124.317 160.43 124.058 160.347 123.775C160.264 123.492 160.18 123.217 160.097 122.95V122.275C160.097 121.542 160.089 120.775 160.072 119.975C160.072 119.175 160.039 118.4 159.972 117.65C159.922 116.883 159.83 116.158 159.697 115.475C159.58 114.792 159.414 114.192 159.197 113.675C158.997 113.142 158.73 112.725 158.397 112.425C158.08 112.125 157.689 111.975 157.222 111.975C156.839 111.975 156.489 112.075 156.172 112.275C155.989 112.392 155.805 112.542 155.622 112.725C155.805 112.558 155.997 112.417 156.197 112.3C156.514 112.1 156.855 112 157.222 112H157.322C157.739 112 158.089 112.167 158.372 112.5C158.672 112.817 158.914 113.242 159.097 113.775C159.297 114.308 159.447 114.917 159.547 115.6C159.647 116.283 159.722 116.992 159.772 117.725C159.839 118.458 159.88 119.192 159.897 119.925C159.914 120.642 159.93 121.3 159.947 121.9C159.847 121.433 159.755 120.883 159.672 120.25C159.605 119.6 159.53 118.925 159.447 118.225C159.38 117.525 159.289 116.833 159.172 116.15C159.072 115.467 158.939 114.858 158.772 114.325C158.605 113.775 158.397 113.333 158.147 113C157.897 112.667 157.589 112.5 157.222 112.5C157.072 112.5 156.939 112.517 156.822 112.55C156.705 112.567 156.555 112.65 156.372 112.8L156.122 112.675C155.555 113.175 155.08 113.842 154.697 114.675C154.314 115.508 153.989 116.408 153.722 117.375C153.455 118.325 153.23 119.3 153.047 120.3C152.864 121.3 152.689 122.225 152.522 123.075V124.025C152.789 122.708 153.03 121.417 153.247 120.15C153.48 118.867 153.814 117.625 154.247 116.425C153.914 117.458 153.655 118.525 153.472 119.625C153.289 120.725 153.08 121.85 152.847 123C152.847 123.117 152.822 123.275 152.772 123.475C152.722 123.675 152.639 123.975 152.522 124.375L149.772 124.1L149.597 123.8ZM149.872 122.55C149.822 122.1 149.772 121.525 149.722 120.825C149.689 120.125 149.639 119.383 149.572 118.6C149.505 117.817 149.414 117.025 149.297 116.225C149.18 115.425 149.014 114.708 148.797 114.075C148.597 113.425 148.339 112.9 148.022 112.5C147.722 112.1 147.339 111.9 146.872 111.9C146.722 111.9 146.564 111.933 146.397 112C146.23 112.067 146.072 112.142 145.922 112.225C145.972 112.208 146.014 112.2 146.047 112.2H146.072C146.072 112.217 146.047 112.25 145.997 112.3C146.447 112.15 146.797 112.075 147.047 112.075C147.364 112.192 147.647 112.45 147.897 112.85C148.147 113.25 148.355 113.733 148.522 114.3C148.705 114.85 148.855 115.45 148.972 116.1C149.105 116.75 149.205 117.375 149.272 117.975C149.339 118.558 149.389 119.083 149.422 119.55C149.455 120.017 149.472 120.35 149.472 120.55C149.522 121.05 149.564 121.542 149.597 122.025C149.647 122.508 149.672 122.992 149.672 123.475L149.872 122.55ZM151.972 115.825C151.972 115.842 151.989 115.917 152.022 116.05C152.055 116.167 152.08 116.242 152.097 116.275C152.147 116.108 152.255 115.842 152.422 115.475C152.589 115.092 152.772 114.692 152.972 114.275C153.172 113.842 153.364 113.442 153.547 113.075C153.614 112.925 153.672 112.792 153.722 112.675C153.672 112.775 153.605 112.883 153.522 113C153.339 113.333 153.139 113.683 152.922 114.05C152.705 114.4 152.505 114.742 152.322 115.075C152.139 115.408 152.022 115.658 151.972 115.825ZM153.947 115.525C153.614 116.375 153.322 117.275 153.072 118.225C152.822 119.158 152.597 120.125 152.397 121.125L152.447 121.525C152.664 120.325 152.914 119.117 153.197 117.9C153.464 116.833 153.805 115.825 154.222 114.875C154.205 114.925 154.189 114.967 154.172 115C154.089 115.167 154.014 115.342 153.947 115.525ZM149.872 118.925C149.905 119.192 149.922 119.45 149.922 119.7C149.939 119.95 149.955 120.183 149.972 120.4L150.047 121.6L150.072 121.475C150.055 121.242 150.047 121.017 150.047 120.8V120.175L149.872 118.925ZM158.072 110.35C157.772 110.267 157.489 110.225 157.222 110.225H156.947C156.83 110.225 156.772 110.233 156.772 110.25H156.797C157.064 110.317 157.314 110.35 157.547 110.35H158.072ZM154.372 116.075C154.455 115.842 154.53 115.617 154.597 115.4C154.68 115.183 154.747 115.033 154.797 114.95C154.797 114.983 154.78 115.05 154.747 115.15C154.714 115.267 154.647 115.442 154.547 115.675L154.372 116.075ZM159.797 111.4C159.714 111.3 159.605 111.2 159.472 111.1C159.372 111.033 159.28 110.975 159.197 110.925C159.397 111.058 159.597 111.217 159.797 111.4ZM153.847 112.45C153.814 112.483 153.789 112.533 153.772 112.6C153.805 112.55 153.83 112.5 153.847 112.45ZM166.943 120.975C167.21 121.058 167.526 121.208 167.893 121.425C168.276 121.642 168.701 121.867 169.168 122.1C169.635 122.333 170.143 122.542 170.693 122.725C171.26 122.908 171.86 123 172.493 123H172.768C172.868 123 172.985 122.983 173.118 122.95L173.393 123.15C174.043 122.95 174.576 122.575 174.993 122.025C175.41 121.458 175.618 120.7 175.618 119.75C175.618 119.067 175.451 118.6 175.118 118.35C174.801 118.083 174.21 117.95 173.343 117.95C172.81 117.95 172.251 117.992 171.668 118.075C171.101 118.142 170.501 118.175 169.868 118.175C169.585 118.175 169.293 118.167 168.993 118.15C168.693 118.117 168.385 118.058 168.068 117.975V118.125C168.735 118.292 169.393 118.375 170.043 118.375C170.676 118.375 171.276 118.342 171.843 118.275C172.426 118.192 172.985 118.15 173.518 118.15C173.968 118.15 174.318 118.2 174.568 118.3C174.835 118.383 175.035 118.5 175.168 118.65C175.301 118.8 175.385 118.983 175.418 119.2C175.468 119.4 175.493 119.625 175.493 119.875C175.493 120.658 175.285 121.325 174.868 121.875C174.468 122.392 173.993 122.717 173.443 122.85C174.06 122.633 174.543 122.258 174.893 121.725C175.26 121.158 175.443 120.525 175.443 119.825C175.443 119.325 175.31 118.942 175.043 118.675C174.793 118.408 174.351 118.275 173.718 118.275C173.201 118.275 172.618 118.308 171.968 118.375C171.318 118.442 170.626 118.475 169.893 118.475C169.443 118.475 168.918 118.417 168.318 118.3C167.735 118.183 167.176 117.967 166.643 117.65C166.11 117.333 165.66 116.9 165.293 116.35C164.926 115.783 164.743 115.05 164.743 114.15C164.743 113.433 164.885 112.775 165.168 112.175C165.468 111.558 165.86 111.025 166.343 110.575C166.826 110.108 167.376 109.742 167.993 109.475C168.626 109.208 169.276 109.067 169.943 109.05C170.576 109.05 171.176 109.142 171.743 109.325C172.326 109.492 172.876 109.717 173.393 110C173.91 110.267 174.401 110.567 174.868 110.9C175.335 111.233 175.768 111.567 176.168 111.9L175.668 112.4C175.551 112.4 175.376 112.333 175.143 112.2C174.91 112.05 174.551 111.8 174.068 111.45L173.918 111.675C174.518 112.158 174.951 112.608 175.218 113.025C175.501 113.442 175.643 113.767 175.643 114C175.61 114.133 175.526 114.2 175.393 114.2C175.26 114.2 174.993 114.092 174.593 113.875C174.193 113.658 173.735 113.417 173.218 113.15C172.718 112.883 172.185 112.642 171.618 112.425C171.051 112.208 170.535 112.1 170.068 112.1C169.801 112.1 169.535 112.15 169.268 112.25C169.001 112.35 168.76 112.492 168.543 112.675C168.326 112.842 168.143 113.05 167.993 113.3C167.86 113.55 167.793 113.825 167.793 114.125C167.793 114.608 168.018 114.933 168.468 115.1C168.918 115.267 169.51 115.35 170.243 115.35C170.393 115.35 170.551 115.35 170.718 115.35C170.901 115.333 171.068 115.308 171.218 115.275C171.601 115.275 171.851 115.267 171.968 115.25C172.101 115.217 172.226 115.2 172.343 115.2C173.06 115.2 173.776 115.25 174.493 115.35C175.21 115.45 175.851 115.667 176.418 116C176.985 116.333 177.443 116.808 177.793 117.425C178.143 118.042 178.318 118.867 178.318 119.9C178.318 120.617 178.193 121.333 177.943 122.05C177.71 122.75 177.351 123.383 176.868 123.95C176.385 124.5 175.785 124.942 175.068 125.275C174.351 125.625 173.51 125.8 172.543 125.8C171.96 125.8 171.268 125.683 170.468 125.45C169.685 125.233 168.935 124.975 168.218 124.675C167.518 124.358 166.918 124.033 166.418 123.7C165.935 123.367 165.693 123.083 165.693 122.85C165.693 122.783 165.735 122.733 165.818 122.7C166.835 123.45 167.868 124.067 168.918 124.55C169.951 125 171.01 125.25 172.093 125.3C171.56 125.267 171.026 125.175 170.493 125.025C169.943 124.858 169.393 124.658 168.843 124.425C168.31 124.175 167.793 123.9 167.293 123.6C166.81 123.283 166.343 122.967 165.893 122.65L166.268 122.325C166.218 122.308 166.126 122.25 165.993 122.15C165.86 122.05 165.726 121.925 165.593 121.775C165.476 121.625 165.368 121.467 165.268 121.3C165.168 121.133 165.118 120.975 165.118 120.825C165.118 120.658 165.151 120.55 165.218 120.5C165.285 120.45 165.36 120.425 165.443 120.425C165.526 120.425 165.701 120.483 165.968 120.6C166.235 120.717 166.56 120.842 166.943 120.975ZM172.468 123.525C171.885 123.525 171.235 123.408 170.518 123.175C169.818 122.925 169.151 122.608 168.518 122.225C169.035 122.575 169.61 122.892 170.243 123.175C170.876 123.442 171.61 123.575 172.443 123.575C173.56 123.575 174.443 123.233 175.093 122.55C175.76 121.867 176.093 120.95 176.093 119.8V119.55C176.01 119.017 175.826 118.583 175.543 118.25C175.276 117.9 174.86 117.708 174.293 117.675C174.643 117.742 174.926 117.85 175.143 118C175.376 118.15 175.551 118.333 175.668 118.55C175.801 118.75 175.893 118.975 175.943 119.225C175.993 119.475 176.018 119.733 176.018 120C175.951 121.1 175.601 121.967 174.968 122.6C174.335 123.217 173.501 123.525 172.468 123.525ZM175.643 124.5C176.06 124.233 176.393 123.908 176.643 123.525C176.893 123.142 177.11 122.742 177.293 122.325C176.943 123.025 176.46 123.642 175.843 124.175C175.243 124.708 174.526 125.042 173.693 125.175C174.01 125.125 174.335 125.058 174.668 124.975C175.018 124.875 175.343 124.717 175.643 124.5ZM178.018 119.8C178.018 119.617 177.985 119.442 177.918 119.275C177.868 119.142 177.826 119 177.793 118.85L177.818 119.175C177.835 119.308 177.843 119.492 177.843 119.725C177.843 120.175 177.793 120.608 177.693 121.025C177.593 121.442 177.468 121.85 177.318 122.25C177.468 121.883 177.61 121.5 177.743 121.1C177.893 120.683 177.985 120.25 178.018 119.8ZM177.793 118.775C177.793 118.792 177.793 118.817 177.793 118.85C177.793 118.817 177.793 118.792 177.793 118.775ZM173.418 122.875C173.401 122.875 173.385 122.875 173.368 122.875C173.385 122.875 173.401 122.875 173.418 122.875Z" fill="url(#paint1_linear_1016_11)"/>
<path d="M82.0302 94.675C81.9802 94.8083 81.9552 94.9083 81.9552 94.975C81.9552 95.025 81.9718 95.1 82.0052 95.2L79.0302 94.725V94.625C78.9135 94.625 78.8552 94.525 78.8552 94.325C78.8552 94.1917 78.8718 94.0583 78.9052 93.925C78.9385 93.7917 78.9635 93.6833 78.9802 93.6C79.1135 92.8 79.2135 92.0417 79.2802 91.325C79.3635 90.6083 79.4302 89.85 79.4802 89.05C79.4802 87.4833 79.4385 86.0667 79.3552 84.8C79.2885 83.5167 79.2552 82.2583 79.2552 81.025C79.2552 79.975 79.3052 79.0333 79.4052 78.2C79.5052 77.3667 79.5552 76.5 79.5552 75.6C79.5552 74.9667 79.5302 74.325 79.4802 73.675L80.0552 73.575C80.1052 73.575 80.1552 73.6083 80.2052 73.675C80.2552 73.725 80.2968 73.8417 80.3302 74.025C80.3635 74.1917 80.3885 74.4333 80.4052 74.75C80.4385 75.05 80.4552 75.4417 80.4552 75.925H80.7552C80.7885 74.7917 80.8635 73.8917 80.9802 73.225C81.1135 72.5583 81.2718 72.225 81.4552 72.225C81.6218 72.225 81.7635 72.4083 81.8802 72.775C81.9968 73.125 82.0885 73.6 82.1552 74.2C82.2385 74.8 82.2968 75.4833 82.3302 76.25C82.3802 77.0167 82.4052 77.8083 82.4052 78.625V81.775C82.7385 81.4083 83.1552 81.075 83.6552 80.775C84.1718 80.475 84.7385 80.325 85.3552 80.325C86.2552 80.325 87.0135 80.55 87.6302 81C88.2635 81.4333 88.7885 81.975 89.2052 82.625C89.6218 83.2583 89.9385 83.9417 90.1552 84.675C90.3885 85.3917 90.5552 86.025 90.6552 86.575C90.7385 86.9083 90.8135 87.2833 90.8802 87.7C90.9635 88.1167 91.0302 88.5417 91.0802 88.975C91.1302 89.4083 91.1635 89.8417 91.1802 90.275C91.2135 90.7083 91.2302 91.1083 91.2302 91.475C91.2302 91.525 91.2218 91.6667 91.2052 91.9C91.2052 92.1167 91.1885 92.35 91.1552 92.6C91.1218 92.85 91.0718 93.075 91.0052 93.275C90.9385 93.475 90.8468 93.575 90.7302 93.575C90.6968 93.575 90.6718 93.5667 90.6552 93.55C90.6885 93.1667 90.7135 92.7917 90.7302 92.425C90.7468 92.0583 90.7552 91.6833 90.7552 91.3C90.7552 90.4167 90.6968 89.5417 90.5802 88.675C90.4802 87.875 90.3302 87.0667 90.1302 86.25C90.2968 86.9833 90.4218 87.7083 90.5052 88.425C90.6052 89.1917 90.6552 89.9583 90.6552 90.725C90.6552 91.6417 90.6052 92.5333 90.5052 93.4C90.3385 93.4667 90.2135 93.625 90.1302 93.875C90.0635 94.125 89.9968 94.3917 89.9302 94.675C89.8635 94.9583 89.7718 95.2083 89.6552 95.425C89.5552 95.6583 89.3885 95.775 89.1552 95.775C89.0718 95.775 88.9968 95.7167 88.9302 95.6C88.8802 95.5 88.8302 95.3667 88.7802 95.2C88.7302 95.05 88.6885 94.8833 88.6552 94.7C88.6385 94.5 88.6302 94.3167 88.6302 94.15C88.6302 94.0333 88.6468 93.9333 88.6802 93.85C88.7135 93.7667 88.7468 93.6667 88.7802 93.55C88.8468 93.15 88.8885 92.75 88.9052 92.35C88.9385 91.9333 88.9552 91.5083 88.9552 91.075C88.9552 90.575 88.9302 90.0167 88.8802 89.4C88.8302 88.7833 88.7468 88.1583 88.6302 87.525C88.5135 86.8917 88.3635 86.2833 88.1802 85.7C87.9968 85.1 87.7635 84.575 87.4802 84.125C87.2135 83.6583 86.8968 83.2917 86.5302 83.025C86.1635 82.7417 85.7468 82.6 85.2802 82.6C84.9135 82.6 84.5802 82.7583 84.2802 83.075C83.9968 83.375 83.7385 83.7667 83.5052 84.25C83.2885 84.7167 83.0968 85.2417 82.9302 85.825C82.7802 86.3917 82.6468 86.9333 82.5302 87.45V87.575C82.6302 87.0583 82.7552 86.5333 82.9052 86C83.0718 85.4667 83.2718 84.975 83.5052 84.525C83.7552 84.0583 84.0468 83.6583 84.3802 83.325C84.7135 82.9917 85.1052 82.775 85.5552 82.675C85.9552 82.675 86.3135 82.8167 86.6302 83.1C86.9468 83.3833 87.2218 83.7583 87.4552 84.225C87.7052 84.675 87.9135 85.1917 88.0802 85.775C88.2635 86.3417 88.4052 86.9083 88.5052 87.475C88.6218 88.0417 88.7052 88.5833 88.7552 89.1C88.8052 89.6 88.8302 90.0167 88.8302 90.35C88.8302 90.8833 88.8052 91.4167 88.7552 91.95C88.7052 92.4667 88.6385 92.975 88.5552 93.475C88.4718 92.7583 88.4135 92.0083 88.3802 91.225C88.3468 90.4417 88.2885 89.6667 88.2052 88.9C88.1218 88.1333 87.9968 87.3833 87.8302 86.65C87.6635 85.9 87.4052 85.2 87.0552 84.55L87.2802 84.475C87.1302 84.1917 86.9885 83.9833 86.8552 83.85C86.7385 83.7167 86.6218 83.6167 86.5052 83.55C86.4052 83.4833 86.2885 83.425 86.1552 83.375C86.0218 83.3083 85.8718 83.2 85.7052 83.05H85.3302C84.7635 83.05 84.2552 83.5833 83.8052 84.65C83.3552 85.7167 82.9385 87.2167 82.5552 89.15L82.4802 90.725C82.5802 90.0417 82.7052 89.2667 82.8552 88.4C83.0218 87.5167 83.2135 86.6917 83.4302 85.925C83.6635 85.1417 83.9302 84.4917 84.2302 83.975C84.5468 83.4417 84.9135 83.175 85.3302 83.175C85.5135 83.175 85.7302 83.2333 85.9802 83.35C86.2302 83.4667 86.4885 83.7 86.7552 84.05C86.5218 83.7833 86.2885 83.5833 86.0552 83.45C85.8218 83.3167 85.6135 83.25 85.4302 83.25L85.2552 83.275C84.9218 83.275 84.6302 83.4833 84.3802 83.9C84.1302 84.3167 83.8968 84.8583 83.6802 85.525C83.4802 86.175 83.3052 86.925 83.1552 87.775C83.0052 88.6083 82.8635 89.45 82.7302 90.3C82.5968 91.1333 82.4718 91.9417 82.3552 92.725C82.2552 93.4917 82.1468 94.1417 82.0302 94.675ZM81.5302 95.075C81.6302 95.0417 81.6885 94.9917 81.7052 94.925C81.7385 94.8583 81.7718 94.825 81.8052 94.825L81.9802 93.5L81.5802 94.75L81.5052 94.9C81.2218 94.8833 80.9468 94.85 80.6802 94.8C80.4468 94.7667 80.1968 94.7333 79.9302 94.7C79.6802 94.65 79.4552 94.6083 79.2552 94.575C79.2052 94.425 79.1802 94.3167 79.1802 94.25C79.1802 94.2333 79.1802 94.2167 79.1802 94.2C79.1968 94.1833 79.2052 94.1667 79.2052 94.15L79.0302 94.125C79.0635 94.3917 79.0885 94.55 79.1052 94.6C79.1385 94.6333 79.1802 94.6667 79.2302 94.7L81.5302 95.075ZM87.5802 81.625C87.2468 81.3917 86.8885 81.2083 86.5052 81.075C86.1218 80.925 85.7218 80.85 85.3052 80.85C84.6385 80.85 84.0635 81.0333 83.5802 81.4C83.0968 81.75 82.7052 82.1417 82.4052 82.575V82.65C82.5552 82.4333 82.7218 82.225 82.9052 82.025C83.1052 81.8083 83.3218 81.625 83.5552 81.475C83.7885 81.3083 84.0552 81.175 84.3552 81.075C84.6552 80.975 84.9968 80.925 85.3802 80.925C86.1302 80.925 86.7968 81.1417 87.3802 81.575C87.9802 82.0083 88.4968 82.5417 88.9302 83.175C88.7468 82.8917 88.5468 82.6167 88.3302 82.35C88.1302 82.0833 87.8802 81.8417 87.5802 81.625ZM90.0802 86.075L90.1302 86.25L90.0802 86.075ZM102.841 95.45C102.207 95.6667 101.724 95.7833 101.391 95.8C101.057 95.8333 100.766 95.8583 100.516 95.875C99.5824 95.875 98.7407 95.7 97.9907 95.35C97.2407 95 96.5991 94.525 96.0657 93.925C95.5324 93.325 95.1157 92.625 94.8157 91.825C94.5324 91.0083 94.3907 90.1417 94.3907 89.225C94.3907 88.6917 94.4407 88.1417 94.5407 87.575C94.6407 86.9917 94.7907 86.425 94.9907 85.875C95.1907 85.3083 95.4491 84.7833 95.7657 84.3C96.0657 83.8167 96.4241 83.3833 96.8407 83C96.4074 83.35 96.0407 83.7667 95.7407 84.25C95.4241 84.7333 95.1574 85.2583 94.9407 85.825C94.7241 86.375 94.5657 86.95 94.4657 87.55C94.3657 88.1333 94.3157 88.7 94.3157 89.25C94.3157 89.95 94.4241 90.7 94.6407 91.5C94.8741 92.2833 95.2407 93.0167 95.7407 93.7C96.2407 94.3667 96.8824 94.925 97.6657 95.375C98.4657 95.825 99.4324 96.05 100.566 96.05C101.099 96.05 101.657 95.975 102.241 95.825C101.607 96.2417 100.899 96.45 100.116 96.45C99.4824 96.45 98.8824 96.35 98.3157 96.15C97.7657 95.9667 97.2491 95.7 96.7657 95.35C96.2991 95.0167 95.8741 94.6167 95.4907 94.15C95.1074 93.6833 94.7824 93.1833 94.5157 92.65L94.7407 92.45C94.4574 91.8833 94.2491 91.3167 94.1157 90.75C93.9991 90.1833 93.9407 89.6083 93.9407 89.025C93.9407 88.175 94.0574 87.3583 94.2907 86.575C94.5407 85.7917 94.8657 85.05 95.2657 84.35L95.8657 83.525C95.9657 83.3417 96.1074 83.1583 96.2907 82.975C96.4907 82.7917 96.7074 82.6167 96.9407 82.45C97.1741 82.2667 97.4157 82.1083 97.6657 81.975C97.9324 81.825 98.1824 81.6917 98.4157 81.575C99.0157 81.275 99.6157 81.0083 100.216 80.775C100.816 80.525 101.516 80.3417 102.316 80.225L102.216 80.15C100.682 80.3 99.3824 80.675 98.3157 81.275C97.2491 81.8583 96.3824 82.575 95.7157 83.425C95.0491 84.275 94.5657 85.2083 94.2657 86.225C93.9657 87.225 93.8157 88.2083 93.8157 89.175C93.8157 89.6917 93.8574 90.2167 93.9407 90.75C94.0407 91.2667 94.1824 91.7833 94.3657 92.3C93.9491 91.3 93.7407 90.2417 93.7407 89.125C93.7407 88.025 93.9241 86.9333 94.2907 85.85C94.6574 84.7667 95.2324 83.7667 96.0157 82.85C97.0157 81.9333 98.1074 81.2333 99.2907 80.75C100.474 80.25 101.616 80 102.716 80C103.066 80 103.424 80.0583 103.791 80.175C104.157 80.2917 104.491 80.475 104.791 80.725C105.091 80.9583 105.332 81.2667 105.516 81.65C105.716 82.0333 105.816 82.5 105.816 83.05C105.816 83.5 105.707 84.05 105.491 84.7C105.274 85.35 104.949 85.9833 104.516 86.6C104.099 87.2 103.574 87.7167 102.941 88.15C102.307 88.5667 101.574 88.775 100.741 88.775H99.9157C99.2991 88.6417 98.7324 88.4917 98.2157 88.325C97.7157 88.1417 97.2407 88 96.7907 87.9C96.7241 88.1667 96.6824 88.425 96.6657 88.675C96.6657 88.9083 96.6657 89.1417 96.6657 89.375C96.6657 89.8583 96.7157 90.3333 96.8157 90.8C96.9324 91.25 97.1074 91.6667 97.3407 92.05C97.5741 92.4333 97.8657 92.7583 98.2157 93.025C98.5824 93.275 99.0241 93.4333 99.5407 93.5C99.8574 93.5667 100.132 93.6083 100.366 93.625C100.599 93.625 100.791 93.6333 100.941 93.65C101.107 93.65 101.224 93.675 101.291 93.725C101.374 93.7583 101.416 93.8333 101.416 93.95C101.249 94 101.074 94.0333 100.891 94.05C100.724 94.0667 100.549 94.075 100.366 94.075C99.7824 94.075 99.2574 93.9833 98.7907 93.8C98.3241 93.6 97.9241 93.375 97.5907 93.125C97.9741 93.5083 98.4324 93.7833 98.9657 93.95C99.4991 94.1 100.024 94.175 100.541 94.175C100.824 94.175 101.116 94.15 101.416 94.1C101.382 94.2 101.366 94.2583 101.366 94.275C101.366 94.375 101.407 94.4417 101.491 94.475C101.557 94.4583 101.674 94.4167 101.841 94.35C102.007 94.2667 102.174 94.1917 102.341 94.125C102.524 94.0417 102.699 93.975 102.866 93.925C103.032 93.8583 103.149 93.825 103.216 93.825C103.299 93.825 103.374 93.8417 103.441 93.875C103.507 93.8917 103.541 93.9833 103.541 94.15C103.541 94.3167 103.482 94.5167 103.366 94.75C103.249 94.9833 103.074 95.2167 102.841 95.45ZM99.3907 85.55L99.9407 85.65C100.124 85.6833 100.291 85.7 100.441 85.7C100.607 85.7 100.799 85.65 101.016 85.55C101.249 85.4333 101.474 85.275 101.691 85.075C101.924 84.875 102.124 84.625 102.291 84.325C102.474 84.025 102.607 83.6833 102.691 83.3L102.741 83.15C102.507 83.15 102.157 83.2083 101.691 83.325C101.224 83.4417 100.741 83.6 100.241 83.8C99.7407 83.9833 99.2741 84.2083 98.8407 84.475C98.4074 84.725 98.1074 85 97.9407 85.3C98.1907 85.35 98.4324 85.4 98.6657 85.45C98.9157 85.4833 99.1574 85.5167 99.3907 85.55ZM98.2407 87.4C98.2741 87.3667 98.2907 87.3167 98.2907 87.25C98.3074 87.1833 98.3157 87.1333 98.3157 87.1L97.1407 86.675L97.0157 87.025L98.2407 87.4ZM97.5407 93.075C97.4241 92.9417 97.3074 92.8083 97.1907 92.675C97.0907 92.5583 97.0074 92.4417 96.9407 92.325C97.0907 92.6083 97.2907 92.8583 97.5407 93.075ZM112.397 95.275C112.23 95.3083 112.047 95.325 111.847 95.325H111.122C110.688 95.325 110.38 95.375 110.197 95.475C110.03 95.575 109.93 95.625 109.897 95.625L109.797 95.175V94.725L109.672 92.375C109.638 91.925 109.547 91.4417 109.397 90.925C109.247 90.4083 109.13 89.8833 109.047 89.35C108.997 89 108.955 88.6667 108.922 88.35L108.822 87.375C108.788 87.0417 108.747 86.7 108.697 86.35C108.663 86 108.605 85.625 108.522 85.225C108.522 85.125 108.522 85.025 108.522 84.925C108.538 84.825 108.547 84.725 108.547 84.625C108.547 84.1083 108.505 83.6 108.422 83.1C108.338 82.6 108.222 82.1083 108.072 81.625C108.188 81.575 108.297 81.5333 108.397 81.5C108.497 81.45 108.588 81.425 108.672 81.425C108.755 81.425 108.847 81.525 108.947 81.725C109.047 81.9083 109.155 82.3 109.272 82.9C109.305 82.9 109.355 82.8917 109.422 82.875C109.488 82.8417 109.538 82.825 109.572 82.825C109.555 82.5417 109.513 82.2417 109.447 81.925C109.38 81.5917 109.313 81.275 109.247 80.975C109.18 80.675 109.113 80.4083 109.047 80.175C108.997 79.925 108.972 79.725 108.972 79.575C108.972 79.5417 108.972 79.5 108.972 79.45C108.988 79.4 109.03 79.375 109.097 79.375C109.18 79.375 109.288 79.4667 109.422 79.65C109.555 79.8333 109.697 80.0667 109.847 80.35C109.997 80.6333 110.138 80.9417 110.272 81.275C110.422 81.5917 110.555 81.8917 110.672 82.175C111.122 81.325 111.63 80.6833 112.197 80.25C112.78 79.8 113.538 79.575 114.472 79.575C115.155 79.575 115.713 79.6583 116.147 79.825C116.58 79.975 116.913 80.15 117.147 80.35C117.397 80.5333 117.563 80.7083 117.647 80.875L117.797 81.125C117.797 81.225 117.747 81.2917 117.647 81.325C117.213 80.9083 116.722 80.5917 116.172 80.375C115.622 80.1583 115.055 80.05 114.472 80.05C113.905 80.05 113.48 80.125 113.197 80.275C112.93 80.4083 112.647 80.575 112.347 80.775C112.663 80.575 112.955 80.4167 113.222 80.3C113.505 80.1833 113.913 80.125 114.447 80.125C115.03 80.125 115.588 80.2417 116.122 80.475C116.655 80.6917 117.113 80.975 117.497 81.325C117.413 81.3583 117.338 81.4 117.272 81.45C117.222 81.4833 117.197 81.5417 117.197 81.625C117.28 81.625 117.372 81.6833 117.472 81.8C117.572 81.9 117.663 82.025 117.747 82.175C117.83 82.325 117.897 82.4833 117.947 82.65C118.013 82.8 118.047 82.925 118.047 83.025C118.047 83.3083 117.938 83.45 117.722 83.45C117.555 83.45 117.355 83.3917 117.122 83.275C117.072 83.2583 116.963 83.1667 116.797 83C116.647 82.8333 116.455 82.6667 116.222 82.5C115.988 82.3167 115.722 82.15 115.422 82C115.122 81.85 114.788 81.775 114.422 81.775C114.122 81.775 113.855 81.8417 113.622 81.975C113.405 82.0917 113.205 82.2583 113.022 82.475C112.838 82.675 112.672 82.9083 112.522 83.175L112.197 83.775C112.447 83.325 112.722 82.9167 113.022 82.55C113.355 82.1167 113.772 81.9 114.272 81.9C114.705 81.9 115.105 82 115.472 82.2C115.838 82.3833 116.138 82.6167 116.372 82.9C116.088 82.7833 115.755 82.6667 115.372 82.55C114.988 82.4333 114.622 82.375 114.272 82.375C114.088 82.375 113.93 82.4167 113.797 82.5C113.663 82.5833 113.547 82.6917 113.447 82.825C113.363 82.9417 113.28 83.075 113.197 83.225C113.13 83.375 113.055 83.5167 112.972 83.65L112.647 83.7C112.363 84.1833 112.13 84.75 111.947 85.4C111.78 86.0333 111.697 86.7 111.697 87.4C111.697 87.8167 111.713 88.1917 111.747 88.525C111.797 88.8583 111.863 89.2 111.947 89.55L112.247 90.325L112.197 89.6C112.163 89.0333 112.13 88.5333 112.097 88.1C112.063 87.65 112.047 87.1583 112.047 86.625C112.08 86.1417 112.147 85.6833 112.247 85.25C112.33 84.8833 112.455 84.5417 112.622 84.225C112.422 84.625 112.288 85.0833 112.222 85.6C112.138 86.1667 112.097 86.7667 112.097 87.4C112.097 87.9 112.122 88.375 112.172 88.825C112.222 89.275 112.28 89.725 112.347 90.175C112.43 90.625 112.513 91.0917 112.597 91.575C112.68 92.0417 112.747 92.5583 112.797 93.125L112.872 93.6L113.022 95.025L112.397 95.275ZM112.697 84.1L112.622 84.225L112.697 84.1ZM130.227 93.8C130.227 93.25 130.186 92.6917 130.102 92.125C130.036 91.5583 130.002 91.0083 130.002 90.475V89.8C129.919 89.15 129.819 88.3917 129.702 87.525C129.586 86.6417 129.436 85.8083 129.252 85.025C129.069 84.2417 128.844 83.575 128.577 83.025C128.311 82.475 127.977 82.2 127.577 82.2C126.994 82.2 126.394 82.475 125.777 83.025C125.161 83.5583 124.644 84.3417 124.227 85.375C124.027 85.9583 123.886 86.575 123.802 87.225C123.736 87.875 123.677 88.5583 123.627 89.275C123.577 89.9917 123.527 90.7333 123.477 91.5C123.444 92.25 123.369 93.0333 123.252 93.85C123.219 93.9333 123.186 94.0333 123.152 94.15C123.136 94.2667 123.119 94.3667 123.102 94.45H120.027V92.425C120.011 92.2583 119.994 92.0583 119.977 91.825C119.961 91.5917 119.936 91.3583 119.902 91.125C119.886 90.875 119.869 90.6333 119.852 90.4C119.836 90.1667 119.819 89.9667 119.802 89.8C119.802 88.45 119.744 87.1 119.627 85.75C119.527 84.4 119.461 83.025 119.427 81.625L120.002 81.5C120.052 81.5 120.102 81.55 120.152 81.65C120.219 81.7333 120.269 81.9 120.302 82.15C120.352 82.4 120.394 82.7583 120.427 83.225C120.477 83.675 120.519 84.2667 120.552 85C120.569 85 120.594 84.9917 120.627 84.975C120.694 84.9417 120.744 84.925 120.777 84.925C120.777 84.8083 120.769 84.6917 120.752 84.575C120.752 84.4583 120.752 84.3417 120.752 84.225C120.752 82.7917 120.844 81.6917 121.027 80.925C121.227 80.1417 121.394 79.75 121.527 79.75C121.627 79.75 121.727 79.9667 121.827 80.4C121.927 80.8333 122.036 81.5167 122.152 82.45C122.436 82 122.761 81.5667 123.127 81.15C123.494 80.7333 123.902 80.375 124.352 80.075C124.819 79.7583 125.319 79.5083 125.852 79.325C126.386 79.1417 126.969 79.05 127.602 79.05C128.152 79.05 128.636 79.1667 129.052 79.4C129.469 79.6333 129.836 79.9417 130.152 80.325C130.486 80.6917 130.761 81.1167 130.977 81.6C131.211 82.0667 131.411 82.5417 131.577 83.025C131.744 83.4917 131.877 83.95 131.977 84.4C132.094 84.8333 132.194 85.2 132.277 85.5C132.277 85.5333 132.286 85.575 132.302 85.625C132.319 85.6583 132.336 85.6917 132.352 85.725C132.552 85.1917 132.802 84.5833 133.102 83.9C133.402 83.2 133.777 82.5417 134.227 81.925C134.677 81.3083 135.202 80.7917 135.802 80.375C136.419 79.9417 137.127 79.725 137.927 79.725C138.711 79.725 139.377 79.9333 139.927 80.35C140.477 80.7667 140.936 81.3 141.302 81.95C141.686 82.6 141.986 83.325 142.202 84.125C142.436 84.9083 142.611 85.6833 142.727 86.45C142.844 87.2 142.919 87.8917 142.952 88.525C142.986 89.1583 143.002 89.6417 143.002 89.975C143.002 90.5083 142.977 90.9 142.927 91.15C142.894 91.4 142.786 91.525 142.602 91.525C142.569 90.8583 142.536 90.1833 142.502 89.5C142.486 88.8167 142.436 88.1333 142.352 87.45C142.286 86.75 142.186 86.0667 142.052 85.4C141.919 84.75 141.744 84.1083 141.527 83.475C141.944 84.7917 142.186 86.1083 142.252 87.425C142.336 88.7583 142.402 90.075 142.452 91.375C142.336 91.2583 142.244 91.2 142.177 91.2C142.127 91.2 142.094 91.2333 142.077 91.3V92.05C142.077 92.2667 142.077 92.4917 142.077 92.725C142.094 92.9583 142.119 93.1583 142.152 93.325C142.119 94.0083 142.086 94.5 142.052 94.8C142.036 95.0833 141.977 95.2667 141.877 95.35C141.744 95.35 141.627 95.275 141.527 95.125C141.427 94.975 141.327 94.7833 141.227 94.55C141.144 94.3167 141.061 94.0583 140.977 93.775C140.894 93.4917 140.811 93.2167 140.727 92.95V92.275C140.727 91.5417 140.719 90.775 140.702 89.975C140.702 89.175 140.669 88.4 140.602 87.65C140.552 86.8833 140.461 86.1583 140.327 85.475C140.211 84.7917 140.044 84.1917 139.827 83.675C139.627 83.1417 139.361 82.725 139.027 82.425C138.711 82.125 138.319 81.975 137.852 81.975C137.469 81.975 137.119 82.075 136.802 82.275C136.619 82.3917 136.436 82.5417 136.252 82.725C136.436 82.5583 136.627 82.4167 136.827 82.3C137.144 82.1 137.486 82 137.852 82H137.952C138.369 82 138.719 82.1667 139.002 82.5C139.302 82.8167 139.544 83.2417 139.727 83.775C139.927 84.3083 140.077 84.9167 140.177 85.6C140.277 86.2833 140.352 86.9917 140.402 87.725C140.469 88.4583 140.511 89.1917 140.527 89.925C140.544 90.6417 140.561 91.3 140.577 91.9C140.477 91.4333 140.386 90.8833 140.302 90.25C140.236 89.6 140.161 88.925 140.077 88.225C140.011 87.525 139.919 86.8333 139.802 86.15C139.702 85.4667 139.569 84.8583 139.402 84.325C139.236 83.775 139.027 83.3333 138.777 83C138.527 82.6667 138.219 82.5 137.852 82.5C137.702 82.5 137.569 82.5167 137.452 82.55C137.336 82.5667 137.186 82.65 137.002 82.8L136.752 82.675C136.186 83.175 135.711 83.8417 135.327 84.675C134.944 85.5083 134.619 86.4083 134.352 87.375C134.086 88.325 133.861 89.3 133.677 90.3C133.494 91.3 133.319 92.225 133.152 93.075V94.025C133.419 92.7083 133.661 91.4167 133.877 90.15C134.111 88.8667 134.444 87.625 134.877 86.425C134.544 87.4583 134.286 88.525 134.102 89.625C133.919 90.725 133.711 91.85 133.477 93C133.477 93.1167 133.452 93.275 133.402 93.475C133.352 93.675 133.269 93.975 133.152 94.375L130.402 94.1L130.227 93.8ZM130.502 92.55C130.452 92.1 130.402 91.525 130.352 90.825C130.319 90.125 130.269 89.3833 130.202 88.6C130.136 87.8167 130.044 87.025 129.927 86.225C129.811 85.425 129.644 84.7083 129.427 84.075C129.227 83.425 128.969 82.9 128.652 82.5C128.352 82.1 127.969 81.9 127.502 81.9C127.352 81.9 127.194 81.9333 127.027 82C126.861 82.0667 126.702 82.1417 126.552 82.225C126.602 82.2083 126.644 82.2 126.677 82.2H126.702C126.702 82.2167 126.677 82.25 126.627 82.3C127.077 82.15 127.427 82.075 127.677 82.075C127.994 82.1917 128.277 82.45 128.527 82.85C128.777 83.25 128.986 83.7333 129.152 84.3C129.336 84.85 129.486 85.45 129.602 86.1C129.736 86.75 129.836 87.375 129.902 87.975C129.969 88.5583 130.019 89.0833 130.052 89.55C130.086 90.0167 130.102 90.35 130.102 90.55C130.152 91.05 130.194 91.5417 130.227 92.025C130.277 92.5083 130.302 92.9917 130.302 93.475L130.502 92.55ZM132.602 85.825C132.602 85.8417 132.619 85.9167 132.652 86.05C132.686 86.1667 132.711 86.2417 132.727 86.275C132.777 86.1083 132.886 85.8417 133.052 85.475C133.219 85.0917 133.402 84.6917 133.602 84.275C133.802 83.8417 133.994 83.4417 134.177 83.075C134.244 82.925 134.302 82.7917 134.352 82.675C134.302 82.775 134.236 82.8833 134.152 83C133.969 83.3333 133.769 83.6833 133.552 84.05C133.336 84.4 133.136 84.7417 132.952 85.075C132.769 85.4083 132.652 85.6583 132.602 85.825ZM134.577 85.525C134.244 86.375 133.952 87.275 133.702 88.225C133.452 89.1583 133.227 90.125 133.027 91.125L133.077 91.525C133.294 90.325 133.544 89.1167 133.827 87.9C134.094 86.8333 134.436 85.825 134.852 84.875C134.836 84.925 134.819 84.9667 134.802 85C134.719 85.1667 134.644 85.3417 134.577 85.525ZM130.502 88.925C130.536 89.1917 130.552 89.45 130.552 89.7C130.569 89.95 130.586 90.1833 130.602 90.4L130.677 91.6L130.702 91.475C130.686 91.2417 130.677 91.0167 130.677 90.8V90.175L130.502 88.925ZM138.702 80.35C138.402 80.2667 138.119 80.225 137.852 80.225H137.577C137.461 80.225 137.402 80.2333 137.402 80.25H137.427C137.694 80.3167 137.944 80.35 138.177 80.35H138.702ZM135.002 86.075C135.086 85.8417 135.161 85.6167 135.227 85.4C135.311 85.1833 135.377 85.0333 135.427 84.95C135.427 84.9833 135.411 85.05 135.377 85.15C135.344 85.2667 135.277 85.4417 135.177 85.675L135.002 86.075ZM140.427 81.4C140.344 81.3 140.236 81.2 140.102 81.1C140.002 81.0333 139.911 80.975 139.827 80.925C140.027 81.0583 140.227 81.2167 140.427 81.4ZM134.477 82.45C134.444 82.4833 134.419 82.5333 134.402 82.6C134.436 82.55 134.461 82.5 134.477 82.45ZM154.274 88.45C153.824 88.45 153.482 88.4417 153.249 88.425C153.032 88.4083 152.832 88.4 152.649 88.4C152.149 88.4 151.707 88.425 151.324 88.475C150.94 88.525 150.615 88.625 150.349 88.775C150.082 88.925 149.882 89.1417 149.749 89.425C149.615 89.7083 149.549 90.0833 149.549 90.55C149.549 91.2333 149.624 91.7417 149.774 92.075C149.94 92.3917 150.165 92.625 150.449 92.775C150.749 92.9083 151.107 92.9917 151.524 93.025C151.94 93.0583 152.407 93.1333 152.924 93.25C153.224 93.2833 153.524 93.3083 153.824 93.325C154.124 93.325 154.424 93.325 154.724 93.325H156.524C155.69 93.275 154.857 93.25 154.024 93.25C153.207 93.2333 152.465 93.1583 151.799 93.025C151.149 92.8917 150.615 92.6583 150.199 92.325C149.799 91.9917 149.599 91.4833 149.599 90.8C149.599 90.25 149.665 89.8333 149.799 89.55C149.949 89.25 150.14 89.0333 150.374 88.9C150.624 88.75 150.915 88.6667 151.249 88.65C151.582 88.6167 151.94 88.6 152.324 88.6C152.79 88.6 153.265 88.625 153.749 88.675C153.365 88.7917 152.974 88.8833 152.574 88.95C152.19 89 151.832 89.0583 151.499 89.125C151.165 89.175 150.874 89.25 150.624 89.35C150.39 89.4333 150.232 89.5583 150.149 89.725V90.85L149.949 90.95C150.015 91.3667 150.074 91.6833 150.124 91.9C150.19 92.1 150.357 92.2583 150.624 92.375C150.89 92.475 151.315 92.5583 151.899 92.625C152.499 92.6917 153.365 92.8 154.499 92.95H156.299C156.615 92.95 156.799 92.9417 156.849 92.925C156.915 92.8917 156.957 92.875 156.974 92.875L156.749 91.525C156.715 91.1917 156.674 90.8917 156.624 90.625C156.574 90.3583 156.507 90.075 156.424 89.775C156.407 89.825 156.357 89.85 156.274 89.85C156.357 90.1333 156.424 90.4333 156.474 90.75C156.54 91.0667 156.59 91.3667 156.624 91.65C156.674 91.9333 156.707 92.175 156.724 92.375C156.757 92.575 156.79 92.6917 156.824 92.725L156.674 92.775C156.64 92.7917 156.59 92.8 156.524 92.8H156.374C156.257 92.8 156.124 92.7917 155.974 92.775C155.824 92.7417 155.632 92.725 155.399 92.725H154.574C153.924 92.725 153.324 92.6917 152.774 92.625C152.257 92.5583 151.807 92.475 151.424 92.375C151.807 92.4583 152.274 92.525 152.824 92.575C153.407 92.6417 153.949 92.675 154.449 92.675C154.665 92.675 154.89 92.675 155.124 92.675C155.374 92.6583 155.64 92.65 155.924 92.65H156.749C156.699 92.6 156.64 92.575 156.574 92.575H156.524C156.457 91.425 156.307 90.325 156.074 89.275C155.84 88.225 155.465 87.3083 154.949 86.525C154.432 85.725 153.757 85.0917 152.924 84.625C152.09 84.1417 151.049 83.9 149.799 83.9C149.449 83.9 149.099 83.925 148.749 83.975C148.399 84.025 148.04 84.0917 147.674 84.175C147.707 84.1417 147.724 84.1083 147.724 84.075C147.724 83.9917 147.69 83.9167 147.624 83.85C147.557 83.7667 147.524 83.6833 147.524 83.6C147.524 83.5 147.624 83.4083 147.824 83.325C148.04 83.225 148.49 83.1333 149.174 83.05C149.14 83.0167 149.115 82.9667 149.099 82.9C149.099 82.8333 149.099 82.7833 149.099 82.75C148.199 82.75 147.499 82.7333 146.999 82.7C146.499 82.65 146.249 82.525 146.249 82.325C146.249 82.2417 146.349 82.125 146.549 81.975C146.765 81.825 147.065 81.6833 147.449 81.55C147.832 81.4 148.29 81.275 148.824 81.175C149.374 81.0583 149.982 81 150.649 81C151.932 81 153.032 81.2 153.949 81.6C154.865 81.9833 155.632 82.5 156.249 83.15C156.882 83.7833 157.39 84.5083 157.774 85.325C158.174 86.1417 158.49 86.9667 158.724 87.8C158.974 88.6167 159.157 89.4167 159.274 90.2C159.39 90.9667 159.499 91.6333 159.599 92.2C159.599 92.3 159.599 92.4 159.599 92.5C159.615 92.6 159.624 92.7167 159.624 92.85C159.624 93.3333 159.532 93.7583 159.349 94.125C159.182 94.475 158.94 94.7667 158.624 95C158.324 95.25 157.965 95.4333 157.549 95.55C157.149 95.6833 156.715 95.75 156.249 95.75C155.882 95.75 155.407 95.7417 154.824 95.725C154.24 95.7083 153.682 95.6583 153.149 95.575C152.799 95.4917 152.415 95.425 151.999 95.375C151.582 95.3417 151.157 95.275 150.724 95.175C150.29 95.075 149.865 94.9333 149.449 94.75C149.049 94.5667 148.682 94.2917 148.349 93.925C148.032 93.5417 147.774 93.05 147.574 92.45C147.39 91.85 147.299 91.0917 147.299 90.175C147.299 89.3083 147.499 88.6167 147.899 88.1C148.299 87.5667 148.774 87.1583 149.324 86.875C149.89 86.575 150.465 86.3833 151.049 86.3C151.632 86.2 152.107 86.15 152.474 86.15C152.94 86.15 153.249 86.1833 153.399 86.25C153.549 86.3167 153.624 86.3833 153.624 86.45C153.624 86.5 153.615 86.5417 153.599 86.575C153.182 86.575 152.649 86.5917 151.999 86.625C151.349 86.6583 150.715 86.7667 150.099 86.95C149.499 87.1333 148.982 87.4167 148.549 87.8C148.115 88.1667 147.899 88.6917 147.899 89.375C148.049 88.7583 148.299 88.275 148.649 87.925C149.015 87.5583 149.432 87.2917 149.899 87.125C150.365 86.9417 150.84 86.8333 151.324 86.8C151.824 86.75 152.274 86.725 152.674 86.725H153.524C153.457 86.7917 153.424 86.8583 153.424 86.925C153.424 86.9917 153.457 87.05 153.524 87.1H154.499C154.765 87.15 154.957 87.2417 155.074 87.375C155.19 87.4917 155.249 87.6 155.249 87.7C155.249 87.85 155.174 87.9833 155.024 88.1C154.874 88.2167 154.624 88.3333 154.274 88.45ZM150.074 94.5C150.54 94.6833 151.015 94.825 151.499 94.925C151.999 95.025 152.49 95.0917 152.974 95.125C153.457 95.175 153.907 95.2 154.324 95.2C153.99 95.1667 153.657 95.1083 153.324 95.025C152.974 94.9417 152.665 94.8667 152.399 94.8C152.115 94.7333 151.832 94.6917 151.549 94.675C151.282 94.6417 150.999 94.6 150.699 94.55C150.415 94.5 150.124 94.425 149.824 94.325C149.524 94.2083 149.224 94.0417 148.924 93.825C149.24 94.1083 149.624 94.3333 150.074 94.5ZM150.324 91.875C150.307 91.8583 150.357 91.9083 150.474 92.025C150.574 92.125 150.707 92.2 150.874 92.25C150.79 92.2167 150.665 92.175 150.499 92.125C150.315 92.0583 150.224 91.9583 150.224 91.825L150.324 91.875ZM150.949 92.25C150.932 92.25 150.907 92.25 150.874 92.25C150.89 92.25 150.915 92.25 150.949 92.25ZM162.741 93.4C162.741 93.3167 162.766 93.2167 162.816 93.1C162.866 92.9833 162.891 92.8583 162.891 92.725C162.941 92.325 162.974 92.0417 162.991 91.875C163.007 91.6917 163.016 91.5333 163.016 91.4C163.016 90.7 162.991 89.95 162.941 89.15C162.907 88.3333 162.866 87.55 162.816 86.8C162.816 86.5667 162.807 86.2917 162.791 85.975C162.791 85.6583 162.774 85.4083 162.741 85.225C162.791 84.6417 162.832 84.0667 162.866 83.5C162.899 82.9333 162.916 82.3583 162.916 81.775V81.15C162.916 80.9333 162.907 80.7167 162.891 80.5C162.941 80.55 162.991 80.575 163.041 80.575C163.107 80.575 163.174 80.55 163.241 80.5C163.324 80.45 163.399 80.425 163.466 80.425C163.582 80.425 163.674 80.55 163.741 80.8C163.824 81.05 163.866 81.6 163.866 82.45H164.091C164.174 81.5167 164.299 80.775 164.466 80.225C164.649 79.675 164.832 79.4 165.016 79.4C165.099 79.4 165.232 79.5833 165.416 79.95C165.599 80.3 165.691 80.8583 165.691 81.625L165.966 81.175C166.149 80.9583 166.349 80.7333 166.566 80.5C166.799 80.2667 167.057 80.0583 167.341 79.875C167.624 79.6917 167.941 79.5417 168.291 79.425C168.641 79.2917 169.041 79.225 169.491 79.225C170.357 79.225 171.107 79.425 171.741 79.825C172.391 80.2083 172.932 80.7167 173.366 81.35C173.799 81.9667 174.149 82.675 174.416 83.475C174.699 84.2583 174.916 85.0583 175.066 85.875C175.216 86.675 175.316 87.45 175.366 88.2C175.416 88.95 175.441 89.5917 175.441 90.125C175.441 90.6083 175.407 90.9 175.341 91C175.291 91.0833 175.191 91.1333 175.041 91.15C175.007 89.8667 174.924 88.5583 174.791 87.225C174.657 85.8917 174.341 84.6 173.841 83.35C174.291 84.6667 174.574 85.9667 174.691 87.25C174.824 88.5167 174.891 89.7917 174.891 91.075C174.791 91.025 174.699 91 174.616 91C174.549 91 174.491 91.025 174.441 91.075C174.441 91.2083 174.449 91.35 174.466 91.5C174.482 91.6333 174.491 91.7667 174.491 91.9C174.507 92.0333 174.516 92.1583 174.516 92.275C174.416 92.6583 174.316 92.9333 174.216 93.1C174.116 93.2667 174.024 93.35 173.941 93.35C173.841 93.35 173.757 93.3083 173.691 93.225C173.624 93.125 173.557 93.0083 173.491 92.875C173.441 92.7417 173.382 92.6 173.316 92.45C173.266 92.2833 173.191 92.125 173.091 91.975C173.124 91.6917 173.149 91.4667 173.166 91.3C173.182 91.1167 173.191 90.9667 173.191 90.85C173.191 90.4 173.182 89.8583 173.166 89.225C173.149 88.5917 173.099 87.9333 173.016 87.25C172.949 86.55 172.832 85.8583 172.666 85.175C172.516 84.475 172.299 83.8583 172.016 83.325C171.749 82.775 171.407 82.3333 170.991 82C170.574 81.65 170.074 81.475 169.491 81.475C169.091 81.475 168.732 81.6083 168.416 81.875C168.116 82.1417 167.849 82.4833 167.616 82.9C167.399 83.3167 167.207 83.775 167.041 84.275C166.874 84.7583 166.741 85.225 166.641 85.675C166.791 85.2083 166.941 84.7333 167.091 84.25C167.257 83.7667 167.449 83.325 167.666 82.925C167.899 82.525 168.166 82.2 168.466 81.95C168.766 81.6833 169.116 81.55 169.516 81.55C170.032 81.55 170.474 81.6917 170.841 81.975C171.224 82.2583 171.541 82.625 171.791 83.075C172.057 83.525 172.266 84.0417 172.416 84.625C172.582 85.1917 172.707 85.775 172.791 86.375C172.874 86.9583 172.924 87.5333 172.941 88.1C172.974 88.65 172.991 89.125 172.991 89.525C172.991 89.8417 172.982 90.1583 172.966 90.475C172.966 90.7917 172.957 91.1167 172.941 91.45C172.791 90.8167 172.674 90.1583 172.591 89.475C172.524 88.775 172.449 88.0917 172.366 87.425C172.282 86.7417 172.174 86.0917 172.041 85.475C171.924 84.8417 171.749 84.2583 171.516 83.725L171.691 83.475C171.524 83.0917 171.332 82.8 171.116 82.6C170.916 82.3833 170.716 82.225 170.516 82.125C170.316 82.025 170.132 81.9667 169.966 81.95C169.799 81.9333 169.691 81.925 169.641 81.925C169.224 81.925 168.849 82.075 168.516 82.375C168.199 82.675 167.916 83.0833 167.666 83.6C167.432 84.1 167.224 84.6833 167.041 85.35C166.857 86.0167 166.699 86.7167 166.566 87.45C166.432 88.1833 166.316 88.925 166.216 89.675C166.116 90.4083 166.032 91.1 165.966 91.75H166.191C166.274 91.1833 166.357 90.5583 166.441 89.875C166.541 89.1917 166.641 88.5 166.741 87.8C166.857 87.0833 166.991 86.3917 167.141 85.725C167.291 85.0583 167.466 84.4583 167.666 83.925C167.882 83.3917 168.132 82.9583 168.416 82.625C168.682 82.3083 169.007 82.125 169.391 82.075C169.024 82.1583 168.716 82.3917 168.466 82.775C168.199 83.175 167.966 83.6667 167.766 84.25C167.566 84.8333 167.382 85.475 167.216 86.175C167.066 86.8583 166.924 87.5167 166.791 88.15L166.291 91.8C166.224 92.0333 166.174 92.2417 166.141 92.425L166.041 92.95C166.007 93.1167 165.974 93.3 165.941 93.5C165.907 93.6833 165.866 93.9 165.816 94.15L165.741 94.45H165.591L163.066 93.6C162.982 93.5833 162.916 93.5583 162.866 93.525C162.832 93.4917 162.791 93.45 162.741 93.4ZM167.091 80.575C166.757 80.8583 166.491 81.1667 166.291 81.5C166.107 81.8167 165.932 82.1417 165.766 82.475V82.5C165.999 82.0167 166.324 81.525 166.741 81.025C167.141 80.5583 167.674 80.2083 168.341 79.975C168.124 80.0417 167.916 80.1083 167.716 80.175C167.482 80.2583 167.274 80.3917 167.091 80.575ZM170.091 79.75C170.007 79.7333 169.891 79.725 169.741 79.725C170.274 79.8583 170.774 80.0083 171.241 80.175C171.707 80.325 172.149 80.6333 172.566 81.1C172.282 80.7167 171.907 80.4167 171.441 80.2C170.991 79.9833 170.541 79.8333 170.091 79.75ZM170.766 82.6C170.632 82.5 170.474 82.425 170.291 82.375C170.124 82.3083 169.916 82.225 169.666 82.125L169.641 82.075C169.924 82.0917 170.174 82.1583 170.391 82.275C170.607 82.375 170.816 82.5583 171.016 82.825L170.766 82.6ZM172.616 81.15C172.849 81.4333 173.066 81.7583 173.266 82.125C173.466 82.4917 173.641 82.8167 173.791 83.1C173.624 82.7167 173.466 82.3667 173.316 82.05C173.166 81.7333 172.932 81.4333 172.616 81.15Z" fill="url(#paint2_linear_1016_11)"/>
<path d="M19.6767 124.305C19.6767 123.965 19.875 123.653 20.2717 123.37C20.6683 123.087 21.1217 122.832 21.6317 122.605C22.1983 122.378 22.7367 122.18 23.2467 122.01C23.8133 121.84 24.2383 121.698 24.5217 121.585C27.2417 121.925 29.9617 122.208 32.6817 122.435C35.4017 122.662 38.1217 122.775 40.8417 122.775C41.8617 122.775 43.2783 122.775 45.0917 122.775C46.905 122.718 48.8883 122.605 51.0417 122.435C53.195 122.265 55.3767 122.01 57.5867 121.67C59.7967 121.273 61.8083 120.735 63.6217 120.055C65.435 119.375 66.9083 118.525 68.0417 117.505C69.175 116.485 69.7417 115.21 69.7417 113.68C69.7417 112.433 69.4583 111.328 68.8917 110.365C68.3817 109.345 67.6733 108.467 66.7667 107.73C65.9167 106.937 64.9533 106.285 63.8767 105.775C63.48 105.548 63.055 105.35 62.6017 105.18C63.055 105.407 63.48 105.633 63.8767 105.86C64.8967 106.427 65.8033 107.135 66.5967 107.985C67.4467 108.778 68.1267 109.685 68.6367 110.705C69.1467 111.668 69.4017 112.773 69.4017 114.02C69.4017 115.38 68.8917 116.542 67.8717 117.505C66.9083 118.412 65.6333 119.177 64.0467 119.8C62.5167 120.423 60.7883 120.905 58.8617 121.245C56.9917 121.585 55.1217 121.84 53.2517 122.01C51.3817 122.18 49.6533 122.293 48.0667 122.35C46.48 122.35 45.2333 122.35 44.3267 122.35C41.4367 122.35 38.5183 122.265 35.5717 122.095C32.6817 121.868 29.7917 121.613 26.9017 121.33C27.9217 121.047 28.9417 120.848 29.9617 120.735C31.0383 120.565 32.115 120.48 33.1917 120.48C35.005 120.48 36.79 120.508 38.5467 120.565C40.3033 120.565 42.06 120.565 43.8167 120.565C45.9133 120.565 47.9817 120.537 50.0217 120.48C52.0617 120.367 54.1583 120.14 56.3117 119.8L56.5667 120.82C57.4167 120.65 58.4933 120.395 59.7967 120.055C61.1 119.658 62.3467 119.177 63.5367 118.61C64.7833 118.043 65.8317 117.335 66.6817 116.485C67.5883 115.635 68.0417 114.643 68.0417 113.51C68.0417 111.867 67.4467 110.422 66.2567 109.175C65.0667 107.928 63.5367 106.823 61.6667 105.86C59.8533 104.84 57.785 103.962 55.4617 103.225C53.1383 102.488 50.8433 101.837 48.5767 101.27C46.3667 100.703 44.27 100.193 42.2867 99.74C40.3033 99.2867 38.7167 98.8617 37.5267 98.465V98.975C38.7167 99.4283 40.275 99.91 42.2017 100.42C44.1283 100.873 46.1967 101.383 48.4067 101.95C50.6733 102.517 52.94 103.168 55.2067 103.905C57.4733 104.585 59.5133 105.407 61.3267 106.37C63.1967 107.333 64.6983 108.438 65.8317 109.685C67.0217 110.932 67.6167 112.348 67.6167 113.935C67.6167 114.842 67.1917 115.635 66.3417 116.315C65.4917 116.995 64.4717 117.59 63.2817 118.1C62.1483 118.553 60.9867 118.922 59.7967 119.205C58.6067 119.488 57.7 119.687 57.0767 119.8C57.8133 119.63 58.7483 119.403 59.8817 119.12C61.0717 118.78 62.205 118.355 63.2817 117.845C64.415 117.335 65.3783 116.74 66.1717 116.06C66.965 115.323 67.3617 114.473 67.3617 113.51C67.3617 111.923 66.7383 110.592 65.4917 109.515C64.245 108.438 62.6017 107.475 60.5617 106.625C58.5217 105.775 56.1983 105.01 53.5917 104.33C50.985 103.65 48.2933 102.913 45.5167 102.12C42.7967 101.327 40.1333 100.42 37.5267 99.4C34.92 98.38 32.5967 97.105 30.5567 95.575C28.5167 94.045 26.8733 92.2317 25.6267 90.135C24.38 88.0383 23.7567 85.5167 23.7567 82.57C23.7567 79.68 24.4367 77.2433 25.7967 75.26C27.2133 73.22 28.9983 71.5767 31.1517 70.33C33.3617 69.0267 35.77 68.0917 38.3767 67.525C40.9833 66.9583 43.505 66.675 45.9417 66.675C49.5117 66.675 52.9967 67.185 56.3967 68.205C59.8533 69.225 63.1117 70.6417 66.1717 72.455C65.8317 72.5683 65.6333 72.7383 65.5767 72.965C65.52 73.135 65.4633 73.3333 65.4067 73.56C65.4067 73.7867 65.35 73.985 65.2367 74.155C65.18 74.325 65.01 74.41 64.7267 74.41C64.5 74.41 64.0467 74.325 63.3667 74.155C62.7433 73.9283 62.0633 73.7017 61.3267 73.475C60.59 73.1917 59.8817 72.9367 59.2017 72.71C58.5217 72.4833 58.0683 72.3133 57.8417 72.2L57.5867 72.965C58.0967 73.1917 58.7483 73.5317 59.5417 73.985C60.3917 74.3817 61.185 74.8917 61.9217 75.515C62.715 76.0817 63.3667 76.705 63.8767 77.385C64.4433 78.065 64.7267 78.745 64.7267 79.425C64.7267 80.1617 64.3867 80.53 63.7067 80.53C62.8567 80.53 61.8367 80.3033 60.6467 79.85C59.5133 79.3967 58.2383 78.915 56.8217 78.405C55.405 77.8383 53.875 77.3283 52.2317 76.875C50.645 76.4217 49.03 76.195 47.3867 76.195C46.31 76.195 45.035 76.3083 43.5617 76.535C42.145 76.705 40.7567 77.0733 39.3967 77.64C38.0933 78.15 36.9883 78.8867 36.0817 79.85C35.175 80.7567 34.7217 81.9183 34.7217 83.335C34.7217 84.6383 35.3167 85.7433 36.5067 86.65C37.7533 87.5567 39.3683 88.3783 41.3517 89.115C43.3917 89.8517 45.6867 90.56 48.2367 91.24C50.7867 91.92 53.3933 92.685 56.0567 93.535C58.7767 94.3283 61.4117 95.2633 63.9617 96.34C66.5117 97.4167 68.7783 98.72 70.7617 100.25C72.8017 101.78 74.4167 103.593 75.6067 105.69C76.8533 107.787 77.4767 110.252 77.4767 113.085C77.4767 115.862 76.91 118.213 75.7767 120.14C74.6433 122.067 73.1417 123.682 71.2717 124.985C69.4017 126.232 67.2767 127.223 64.8967 127.96C62.5167 128.64 60.0517 129.178 57.5017 129.575C55.0083 129.915 52.515 130.113 50.0217 130.17C47.585 130.283 45.375 130.34 43.3917 130.34H34.8917C34.3817 130.34 33.6733 130.312 32.7667 130.255C31.9167 130.255 31.0667 130.198 30.2167 130.085C29.3667 130.028 28.63 129.887 28.0067 129.66C27.3833 129.433 27.0717 129.15 27.0717 128.81L27.1567 128.385C29.48 128.498 31.775 128.612 34.0417 128.725C36.3083 128.782 38.6033 128.81 40.9267 128.81C43.08 128.81 45.2333 128.81 47.3867 128.81C49.3133 128.753 51.24 128.64 53.1667 128.47C52.2033 128.527 51.24 128.583 50.2767 128.64C49.0867 128.64 47.925 128.64 46.7917 128.64H43.3917C38.065 128.64 32.8233 128.47 27.6667 128.13C27.78 127.677 27.8367 127.365 27.8367 127.195C27.8367 126.968 27.78 126.742 27.6667 126.515C27.5533 126.515 27.3833 126.543 27.1567 126.6C26.9867 126.6 26.76 126.6 26.4767 126.6C25.8533 126.6 25.145 126.572 24.3517 126.515C23.615 126.458 22.8783 126.345 22.1417 126.175C21.4617 126.005 20.8667 125.778 20.3567 125.495C19.9033 125.155 19.6767 124.758 19.6767 124.305ZM71.8667 122.095C70.9033 122.945 69.8833 123.653 68.8067 124.22C67.8433 124.73 66.8517 125.212 65.8317 125.665C66.8517 125.325 67.8433 124.928 68.8067 124.475C69.8833 124.022 70.9033 123.228 71.8667 122.095Z" fill="url(#paint3_linear_1016_11)"/>
<defs>
<linearGradient id="paint0_linear_1016_11" x1="100" y1="0" x2="100" y2="200" gradientUnits="userSpaceOnUse">
<stop stop-color="#0123E7"/>
<stop offset="0.99748" stop-opacity="0.25"/>
</linearGradient>
<linearGradient id="paint1_linear_1016_11" x1="130" y1="101" x2="130" y2="131" gradientUnits="userSpaceOnUse">
<stop offset="0.505208" stop-color="#D9D9D9"/>
<stop offset="1" stop-color="#0123E7"/>
</linearGradient>
<linearGradient id="paint2_linear_1016_11" x1="127" y1="71" x2="127" y2="101" gradientUnits="userSpaceOnUse">
<stop offset="0.4375" stop-color="#D9D9D9"/>
<stop offset="1" stop-color="#0123E7"/>
</linearGradient>
<linearGradient id="paint3_linear_1016_11" x1="49" y1="59" x2="49" y2="140" gradientUnits="userSpaceOnUse">
<stop offset="0.583333" stop-color="#D9D9D9"/>
<stop offset="1" stop-color="#0123E7"/>
</linearGradient>
</defs>
</svg>
